<?xml version="1.0" encoding="UTF-8"?>
<svg version="1.1" xmlns="http://www.w3.org/2000/svg" width="32" height="32">
<path d="M0 0 C3.1875 0.375 3.1875 0.375 5.5 2.75 C7.1875 5.375 7.1875 5.375 8.1875 7.375 C9.5075 7.045 10.8275 6.715 12.1875 6.375 C11.23574561 13.17324561 11.23574561 13.17324561 10.5 16.25 C9.92105538 20.39299834 9.92105538 20.39299834 12.1875 28.375 C4.2675 28.375 -3.6525 28.375 -11.8125 28.375 C-11.4825 27.055 -11.1525 25.735 -10.8125 24.375 C-10.49581838 18.29285013 -10.74711989 12.36776313 -11.8125 6.375 C-10.4925 6.705 -9.1725 7.035 -7.8125 7.375 C-7.173125 6.405625 -6.53375 5.43625 -5.875 4.4375 C-3.17124439 0.42283259 -3.17124439 0.42283259 0 0 Z M-2.8125 5.375 C-1.8125 8.375 -1.8125 8.375 -1.8125 8.375 Z M2.1875 5.375 C3.1875 8.375 3.1875 8.375 3.1875 8.375 Z M-0.8125 10.375 C-0.8125 11.035 -0.8125 11.695 -0.8125 12.375 C-0.1525 12.375 0.5075 12.375 1.1875 12.375 C1.1875 11.715 1.1875 11.055 1.1875 10.375 C0.5275 10.375 -0.1325 10.375 -0.8125 10.375 Z " fill="#000000" transform="translate(15.8125,1.625)"/>
</svg>
